<svg width="16" height="16" viewBox="0 0 16 16" fill="none" xmlns="http://www.w3.org/2000/svg">
    <path style="stroke:none;fill-rule:nonzero;fill:rgb(0.392157%,34.117647%,60.784314%);fill-opacity:1;"
          d="M 4.210938 11.789062 L 2.019531 9.601562 C 1.761719 9.332031 1.601562 8.957031 1.601562 8.589844 C 1.601562 8.417969 1.695312 8.152344 1.769531 8 L 3.789062 3.789062 Z M 4.210938 11.789062"/>
    <path style="stroke:none;fill-rule:nonzero;fill:rgb(25.098039%,76.862745%,100%);fill-opacity:1;"
          d="M 11.707031 4.210938 L 9.515625 2.019531 C 9.324219 1.828125 8.925781 1.601562 8.589844 1.601562 C 8.300781 1.601562 8.015625 1.660156 7.832031 1.769531 L 3.789062 3.789062 Z M 11.707031 4.210938"/>
    <path style="stroke:none;fill-rule:nonzero;fill:rgb(25.098039%,76.862745%,100%);fill-opacity:1;"
          d="M 6.820312 14.398438 L 12.125 14.398438 L 12.125 12.125 L 8.167969 10.863281 L 4.546875 12.125 Z M 6.820312 14.398438 "/>
    <path style="stroke:none;fill-rule:nonzero;fill:rgb(16.078431%,71.372549%,96.470588%);fill-opacity:1;"
          d="M 3.789062 10.609375 C 3.789062 11.285156 3.875 11.453125 4.210938 11.789062 L 4.546875 12.125 L 12.125 12.125 L 8.421875 7.917969 L 3.789062 3.789062 Z M 3.789062 10.609375"/>
    <path style="stroke:none;fill-rule:nonzero;fill:rgb(0.392157%,34.117647%,60.784314%);fill-opacity:1;"
          d="M 10.527344 3.789062 L 3.789062 3.789062 L 12.125 12.125 L 14.398438 12.125 L 14.398438 6.90625 L 11.703125 4.210938 C 11.328125 3.832031 10.992188 3.789062 10.527344 3.789062 Z M 10.527344 3.789062"/>
    <polygon fill="#59A869" fill-rule="evenodd" points="8 6 14 10 8 14"/>
</svg>
